<?xml version="1.0" encoding="UTF-8" ?>
<!DOCTYPE svg PUBLIC "-//W3C//DTD SVG 1.1//EN" "http://www.w3.org/Graphics/SVG/1.1/DTD/svg11.dtd">
<svg width="250pt" height="250pt" viewBox="0 0 250 250" version="1.1" xmlns="http://www.w3.org/2000/svg">
<g id="#ffffffff">
</g>
<g id="#9abd21ff">
<path fill="#9abd21" opacity="1.00" d=" M 91.05 7.04 C 97.98 3.06 106.18 5.93 112.76 9.21 C 118.54 11.76 124.90 15.84 131.41 13.33 C 140.38 10.49 148.72 3.44 158.64 5.46 C 166.78 7.46 170.84 15.64 174.54 22.38 C 176.92 26.46 179.14 31.35 183.83 33.19 C 191.44 36.14 200.02 35.87 207.33 39.70 C 211.72 41.90 214.87 46.34 215.52 51.20 C 216.30 57.30 215.28 63.41 214.62 69.47 C 214.28 73.24 213.94 77.42 216.21 80.70 C 220.87 87.61 228.18 92.58 231.57 100.38 C 233.68 105.24 233.31 111.05 230.51 115.56 C 226.93 122.09 220.72 126.55 216.48 132.56 C 214.12 135.77 214.14 139.93 214.50 143.72 C 215.16 150.77 216.80 158.03 214.94 165.03 C 213.82 169.15 210.42 171.98 207.13 174.41 C 213.06 185.75 219.93 196.58 226.27 207.70 C 227.83 210.76 230.97 213.90 229.72 217.60 C 228.92 219.87 226.17 220.33 224.13 219.68 C 213.14 216.97 202.33 213.57 191.30 211.03 C 188.11 221.80 185.58 232.75 182.44 243.53 C 181.91 245.59 180.49 247.98 177.98 247.52 C 175.57 247.81 174.40 245.39 173.29 243.70 C 168.11 234.58 162.80 225.53 157.61 216.41 C 156.14 213.90 154.91 211.21 153.04 208.97 C 149.45 207.41 145.53 206.71 142.02 204.94 C 135.88 202.21 129.33 197.97 122.35 200.36 C 115.13 203.09 108.32 206.88 100.82 208.86 C 93.32 220.79 86.76 233.36 79.44 245.42 C 78.33 247.71 75.39 248.01 73.30 246.98 C 72.10 245.89 71.59 244.31 71.13 242.82 C 68.25 232.25 65.51 221.63 62.65 211.05 C 51.92 213.52 41.37 216.72 30.72 219.50 C 28.66 220.01 25.90 220.41 24.52 218.36 C 23.15 216.71 23.72 214.37 24.71 212.69 C 31.89 199.87 39.60 187.34 46.61 174.42 C 43.27 171.76 39.58 168.85 38.62 164.46 C 35.85 154.59 41.22 144.38 38.40 134.59 C 33.46 125.51 22.70 119.85 20.87 109.01 C 19.63 100.85 25.53 94.21 30.70 88.71 C 33.87 85.16 37.99 81.84 39.02 76.96 C 40.33 67.33 35.78 57.50 38.98 48.03 C 41.17 41.65 47.78 38.28 53.98 36.95 C 60.37 35.16 67.75 35.48 73.14 31.16 C 80.20 23.96 82.08 12.54 91.05 7.04 M 96.34 14.28 C 88.29 19.26 86.76 29.79 80.34 36.33 C 74.37 43.20 64.63 43.41 56.39 45.34 C 52.47 46.24 47.37 47.81 46.62 52.41 C 45.36 62.10 49.82 72.04 46.58 81.58 C 43.36 90.05 35.13 95.00 30.50 102.53 C 28.79 105.21 28.75 108.80 30.56 111.44 C 35.13 118.71 42.92 123.63 46.32 131.70 C 49.43 139.52 46.63 147.96 46.47 156.02 C 46.32 159.61 46.26 164.21 49.95 166.15 C 58.50 170.58 69.14 169.15 77.23 174.75 C 85.02 180.46 87.10 190.65 93.43 197.57 C 96.88 201.48 102.64 199.49 106.68 197.69 C 114.90 193.99 123.85 188.77 133.14 191.91 C 141.43 193.81 148.62 201.10 157.51 199.43 C 165.18 194.45 166.76 184.33 172.86 177.86 C 178.72 170.92 188.40 170.51 196.62 168.64 C 200.57 167.71 205.77 166.44 206.82 161.85 C 208.30 152.44 203.98 142.88 206.56 133.54 C 208.88 125.74 215.74 120.74 220.68 114.67 C 223.28 111.72 225.60 107.47 223.55 103.58 C 219.16 95.27 209.98 90.32 206.84 81.20 C 203.90 71.95 207.98 62.40 206.99 53.01 C 206.82 50.47 205.02 48.30 202.74 47.30 C 194.21 43.39 183.88 44.57 176.05 38.94 C 168.72 33.45 166.56 23.96 160.83 17.17 C 159.14 15.28 156.77 13.30 154.04 13.87 C 144.64 15.62 136.87 22.93 127.01 22.80 C 118.57 23.13 111.54 17.79 103.92 15.08 C 101.51 14.31 98.82 13.19 96.34 14.28 M 55.26 177.20 C 51.48 182.89 48.36 188.97 44.88 194.84 C 42.35 199.37 39.44 203.69 37.36 208.45 C 46.04 206.77 54.41 203.80 63.04 201.92 C 64.83 201.75 66.93 201.30 68.53 202.37 C 69.40 203.65 69.84 205.16 70.28 206.64 C 72.56 214.92 74.41 223.33 77.09 231.50 C 82.22 223.64 86.67 215.35 91.16 207.12 C 87.70 204.17 84.36 200.95 82.17 196.91 C 79.11 191.99 77.09 186.25 72.75 182.25 C 67.68 178.65 61.19 178.29 55.26 177.20 M 178.20 185.18 C 173.11 192.71 169.98 201.90 162.23 207.32 C 166.82 215.46 171.42 223.62 176.34 231.57 C 178.73 225.15 179.99 218.38 181.86 211.81 C 182.85 208.56 183.16 204.91 185.37 202.19 C 187.33 201.12 189.71 201.85 191.78 202.19 C 200.01 204.30 208.13 206.82 216.40 208.74 C 210.54 198.15 204.51 187.62 198.22 177.28 C 191.32 178.76 182.57 178.64 178.20 185.18 Z" />
<path fill="#9abd21" opacity="1.00" d=" M 115.39 42.57 C 127.49 40.66 140.20 41.77 151.56 46.52 C 169.43 53.75 183.66 69.38 189.18 87.85 C 194.08 103.89 192.54 121.84 184.78 136.73 C 177.75 150.49 165.65 161.56 151.33 167.37 C 140.92 171.73 129.39 172.69 118.25 171.56 C 103.48 169.73 89.47 162.53 79.31 151.67 C 67.02 138.84 60.54 120.77 61.62 103.06 C 62.44 88.91 67.96 75.03 77.31 64.34 C 86.98 52.95 100.71 45.25 115.39 42.57 M 120.43 50.57 C 104.53 52.38 89.56 61.26 80.42 74.41 C 73.86 83.92 69.96 95.40 70.21 107.01 C 69.95 126.99 81.56 146.42 98.95 156.10 C 110.73 162.94 124.96 164.90 138.25 162.29 C 150.86 159.65 162.51 152.62 170.61 142.60 C 179.01 132.43 183.63 119.21 183.29 106.02 C 183.32 88.42 174.17 71.26 159.92 61.05 C 148.68 52.78 134.28 49.04 120.43 50.57 Z" />
<path fill="#9abd21" opacity="1.00" d=" M 159.06 82.07 C 160.27 80.73 161.95 79.85 163.80 80.21 C 166.83 80.10 168.07 84.29 166.55 86.48 C 163.96 89.88 160.60 92.59 157.67 95.67 C 148.10 105.44 138.54 115.21 128.82 124.83 C 125.89 127.60 123.35 130.83 120.03 133.17 C 118.06 134.48 115.53 133.62 114.08 131.94 C 106.03 123.98 98.12 115.89 90.03 107.96 C 88.58 106.44 86.87 104.95 86.27 102.85 C 85.98 99.94 88.88 97.21 91.77 98.12 C 95.45 100.36 98.05 103.92 101.18 106.82 C 106.80 112.22 111.98 118.09 117.88 123.19 C 131.68 109.56 145.31 95.76 159.06 82.07 Z" />
</g>
</svg>
