<?xml version="1.0" encoding="utf-8"?>
<!-- Generator: Adobe Illustrator 16.0.3, SVG Export Plug-In . SVG Version: 6.00 Build 0)  -->
<!DOCTYPE svg PUBLIC "-//W3C//DTD SVG 1.1//EN" "http://www.w3.org/Graphics/SVG/1.1/DTD/svg11.dtd">
<svg version="1.1" id="Layer_1" xmlns="http://www.w3.org/2000/svg" xmlns:xlink="http://www.w3.org/1999/xlink" x="0px" y="0px"
	 width="556px" height="556px" viewBox="0 0 556 556" enable-background="new 0 0 556 556" xml:space="preserve">
<g id="_x23_ffffffff">
</g>
<g id="_x23_8ea91dff">
	<path fill="#8EA91D" d="M227.85,30.81c33.76-12.2,71.9-11.9,105.43,0.939c29.09,10.99,54.54,31.271,71.92,57.04
		c18.7,27.42,27.88,61.141,25.75,94.25c-1.6,28.28-11.319,56.07-27.88,79.07c-3.64,5.189-7.84,9.95-11.93,14.79
		c10.66-1.34,21.25-3.22,31.92-4.41c4.65-0.65,8.85,3.9,8.11,8.47c-0.37,3.721-3.721,6.5-7.351,6.771
		c-18.45,2.6-36.89,5.35-55.35,7.84c-4.42,0.729-8.82-3.03-8.66-7.54c-0.15-18.36-0.04-36.72-0.06-55.08
		c-0.211-3.43,1.64-6.99,4.96-8.21c4.319-1.87,10.119,1.39,10.22,6.24c0.24,13.399-0.09,26.8,0.14,40.2
		c20.62-20,34.51-46.78,39.061-75.141c5.399-32.1-1.261-66.05-18.45-93.689c-15.9-25.95-40.71-46.28-69.271-56.78
		c-26.739-9.93-56.64-11.09-84.069-3.3c-27.12,7.56-51.61,23.899-69.28,45.779c-19.12,23.53-30.18,53.591-30.34,83.94
		c-0.66,32.6,11.34,65.11,32.38,89.94c17.12,20.409,40.34,35.6,65.92,43.069c5.3,1.03,7.65,8.16,4.19,12.2
		c-2.01,2.63-5.63,3.42-8.7,2.43c-30.94-9.02-58.75-28.25-78.24-53.899c-19.74-25.75-30.84-58.04-30.83-90.51
		c-0.529-31.141,9.12-62.301,26.91-87.841C172.22,61.54,198.25,41.4,227.85,30.81z"/>
	<path fill="#8EA91D" d="M482.699,303.71c18.181-6.54,39.511,3.601,48.21,20.32c4.24,8.1,4.9,17.77,2.591,26.55
		c-2.051,7.91-6.4,15.061-11.69,21.22c-23.48,25.65-45.73,52.371-67.97,79.091c-2.261,2.58-5.62,3.689-8.57,5.26
		c-51.35,25.61-102.64,51.33-153.979,76.95c-4.73,2.52-9.57-0.75-13.931-2.46c-47.399-19.93-94.72-40.03-142.149-59.87
		c-2.931-1.18-6.15-0.71-9.221-0.79c-31.689,0.04-63.369,0.03-95.06,0c-4.6,0.31-8.56-4.25-7.66-8.77c0.36-3.74,3.95-6.7,7.681-6.45
		C64.97,454.7,99,454.79,133.02,454.72c1.87,0,3.78,0.14,5.55,0.83c48.841,20.35,97.521,41.08,146.301,61.59
		c1.35,0.72,2.83,0.7,4.13-0.13c50.449-25.23,100.89-50.48,151.359-75.66c3.72-1.78,5.82-5.521,8.47-8.49
		c19.7-23.59,39.4-47.19,60.2-69.82c6.29-7.029,11.721-16.25,10.23-26.029c-2.2-11.551-13.851-19.82-25.26-20.11
		c-5.87-0.271-10.75,3.54-14.23,7.88c-25.42,28.01-49.67,57.04-74,85.99c-1.27,1.47-2.89,2.79-4.89,2.97
		c-7.431,1.11-14.98,1.271-22.37,2.63c-0.641,8.15-3.391,16.221-8.57,22.61c-8.15,10.46-21.84,16.18-35.01,14.82
		c-4.65-0.431-9.101-1.95-13.59-3.15c-24.311-6.68-48.601-13.43-72.93-20.05c-3.65-0.79-7.98-2.43-8.61-6.66
		c-1.76-5.74,4.72-11,10.11-8.83c24.59,6.68,49.14,13.53,73.729,20.26c5.67,1.53,11.38,3.66,17.36,3.11
		c10.869-0.64,20.26-9.79,21.88-20.44c1.92-10.49-4.28-21.8-14.12-25.89c-25.05-10.63-50.37-20.62-75.99-29.811
		c-30.01-10.619-60.39-20.72-91.779-26.42c-18.351-3.5-37.221-2.33-55.58,0.42c-30.86,4.971-61.32,17.141-84.5,38.53
		c-3.07,2.53-5.4,7.04-9.9,6.93c-4.25,0.33-8.18-3.55-7.81-7.81c-0.091-3.64,2.96-6.14,5.22-8.56
		c22.24-21.48,51.24-34.99,81.189-41.73c18.46-4.04,37.44-5.83,56.33-5.01c23.15,1.8,45.67,8,67.86,14.52
		c42.61,13.011,84.239,29.051,125.149,46.63c18.99-21.949,37.49-44.359,57.34-65.569c5.971-6.521,14.921-9.931,23.711-9.561
		c10.05,0.061,19.43,4.67,27.109,10.891C471.699,310.94,476.26,305.79,482.699,303.71 M435.3,320.36
		c-4.7,0.84-8.03,4.51-11.061,7.88c-18.31,20.21-36.08,40.92-53.56,61.85c2.03,3.53,4.07,7.08,5.64,10.841
		c6.431-0.641,12.931-0.99,19.28-2.2c20.35-23.87,40.51-47.94,61.18-71.54C450.96,322.16,443.05,318.84,435.3,320.36z"/>
</g>
<path fill="#8EA91D" d="M311.655,123.286c3.229,0,5.846-2.617,5.846-5.845c0-3.229-2.617-5.845-5.846-5.845h-71.309
	c-3.229,0-5.845,2.617-5.845,5.845c0,3.228,2.617,5.845,5.845,5.845h24.549c7.62,0,14.116,4.887,16.53,11.69h-41.08
	c-3.229,0-5.845,2.618-5.845,5.845c0,3.228,2.617,5.845,5.845,5.845h41.079c-2.413,6.803-8.91,11.69-16.53,11.69h-24.159
	c-2.278,0-4.349,1.323-5.304,3.391c-0.957,2.066-0.625,4.501,0.849,6.238l48.318,56.892c1.156,1.361,2.802,2.062,4.458,2.062
	c1.338,0,2.683-0.457,3.78-1.391c2.461-2.089,2.762-5.778,0.673-8.239l-40.141-47.263h11.526c14.113,0,25.921-10.057,28.637-23.38
	h18.123c3.229,0,5.846-2.618,5.846-5.845c0-3.228-2.617-5.845-5.846-5.845h-18.123c-0.88-4.317-2.715-8.291-5.272-11.691
	L311.655,123.286L311.655,123.286z"/>
</svg>
