<?xml version="1.0" encoding="UTF-8" ?>
<!DOCTYPE svg PUBLIC "-//W3C//DTD SVG 1.1//EN" "http://www.w3.org/Graphics/SVG/1.1/DTD/svg11.dtd">
<svg width="345pt" height="346pt" viewBox="0 0 345 346" version="1.1" xmlns="http://www.w3.org/2000/svg">
<g id="#ffffffff">
</g>
<g id="#8ea91dff">
<path fill="#8ea91d" opacity="1.00" d=" M 78.31 23.38 C 85.56 21.92 92.57 25.54 97.97 30.07 C 112.51 42.65 124.61 57.79 135.16 73.81 C 141.32 83.05 148.14 92.63 149.45 103.97 C 150.15 109.98 146.64 115.50 142.16 119.17 C 133.86 126.09 124.67 131.87 115.44 137.46 C 111.53 140.08 107.37 142.66 104.60 146.55 C 103.79 147.56 104.86 148.85 105.10 149.91 C 113.59 169.09 126.77 185.75 141.20 200.79 C 152.21 211.58 164.02 221.64 176.93 230.09 C 183.60 234.11 190.29 238.42 197.76 240.77 C 201.04 239.23 203.19 236.10 205.27 233.26 C 210.91 224.87 215.70 215.92 221.92 207.91 C 226.05 201.72 231.91 195.35 239.98 195.42 C 252.40 196.64 262.94 204.18 272.94 211.06 C 288.55 221.38 303.20 233.35 315.39 247.60 C 319.08 252.62 322.85 258.52 321.92 265.06 C 321.05 272.49 317.30 279.16 313.38 285.39 C 307.81 293.62 301.41 301.39 293.65 307.66 C 287.51 312.72 281.40 318.31 273.63 320.69 C 267.38 323.15 260.56 322.18 254.02 322.32 C 214.37 319.80 177.17 302.56 145.01 280.01 C 115.55 259.30 89.59 233.66 68.52 204.45 C 59.45 192.14 51.24 179.16 44.57 165.39 C 33.69 143.96 25.88 120.72 23.60 96.71 C 22.50 85.75 22.05 73.81 28.02 64.05 C 38.21 48.50 51.97 35.05 68.60 26.56 C 71.69 25.11 74.97 24.05 78.31 23.38 M 78.40 38.29 C 71.05 40.99 64.48 45.49 58.65 50.66 C 50.25 58.01 42.27 66.53 38.33 77.17 C 35.98 83.21 37.16 89.77 38.00 95.98 C 39.59 115.99 46.08 135.31 54.67 153.35 C 67.24 179.08 83.69 202.88 103.06 223.97 C 109.18 230.16 115.29 236.37 121.53 242.45 C 131.82 251.95 142.78 260.74 154.30 268.72 C 173.33 281.78 193.73 293.15 215.73 300.36 C 231.61 305.35 248.27 308.73 264.99 307.74 C 271.38 306.69 276.86 302.75 281.83 298.81 C 290.74 292.07 298.02 283.27 303.58 273.62 C 305.17 269.95 308.12 266.24 307.40 262.06 C 303.59 254.75 297.32 249.19 291.54 243.47 C 278.53 232.16 264.61 221.74 249.38 213.59 C 246.48 212.20 243.53 210.35 240.22 210.34 C 237.06 211.04 235.25 214.03 233.42 216.42 C 225.93 227.27 219.69 239.03 210.97 249.00 C 208.36 252.01 204.84 254.20 200.94 255.07 C 195.24 256.61 189.71 253.62 184.64 251.39 C 164.55 241.20 146.80 226.92 130.93 211.05 C 117.75 197.31 105.62 182.36 96.48 165.60 C 93.96 160.54 91.11 155.55 89.77 150.02 C 88.77 143.79 91.96 137.60 96.55 133.56 C 107.15 123.69 120.90 118.16 132.05 109.02 C 133.59 107.57 135.91 105.59 134.86 103.23 C 130.46 92.05 123.62 82.05 116.70 72.30 C 108.44 61.37 99.90 50.43 89.22 41.75 C 86.11 39.56 82.43 35.95 78.40 38.29 Z" />
<path fill="#8ea91d" opacity="1.00" d=" M 192.40 23.55 C 203.41 22.26 214.57 24.34 225.31 26.74 C 248.26 32.13 269.35 44.40 285.92 61.09 C 304.22 80.26 316.76 104.99 320.55 131.29 C 321.68 138.08 322.39 145.02 321.82 151.90 C 321.04 156.39 315.36 159.04 311.44 156.63 C 308.51 155.37 307.64 151.95 307.82 149.04 C 307.69 131.66 303.32 114.28 295.14 98.93 C 278.06 65.11 242.99 41.18 205.23 37.82 C 199.86 36.36 192.51 39.55 188.88 34.08 C 185.86 30.53 188.22 24.87 192.40 23.55 Z" />
<path fill="#8ea91d" opacity="1.00" d=" M 192.41 68.61 C 197.22 67.44 202.17 68.78 207.03 69.01 C 224.98 71.51 242.02 80.34 254.41 93.59 C 268.99 108.75 277.21 129.83 276.82 150.85 C 276.60 155.48 271.56 159.00 267.20 157.03 C 262.49 155.55 262.69 150.06 262.38 146.07 C 261.76 132.30 256.56 118.81 247.84 108.15 C 238.18 95.86 224.05 87.33 208.84 83.92 C 203.65 82.91 198.33 82.84 193.09 82.11 C 189.92 81.90 188.23 78.69 187.59 75.95 C 187.27 72.85 189.42 69.54 192.41 68.61 Z" />
<path fill="#8ea91d" opacity="1.00" d=" M 192.36 113.50 C 212.18 110.37 231.85 128.14 231.82 147.96 C 231.78 150.39 232.26 153.36 230.25 155.20 C 227.99 157.86 223.53 158.44 220.79 156.20 C 217.86 154.18 217.61 150.27 217.30 147.04 C 216.96 138.49 210.03 131.53 202.38 128.62 C 198.13 126.94 192.60 128.52 189.27 124.79 C 185.91 121.34 187.75 114.71 192.36 113.50 Z" />
</g>
</svg>
