<?xml version="1.0" encoding="UTF-8" ?>
<!DOCTYPE svg PUBLIC "-//W3C//DTD SVG 1.1//EN" "http://www.w3.org/Graphics/SVG/1.1/DTD/svg11.dtd">
<svg width="241pt" height="266pt" viewBox="0 0 241 266" version="1.1" xmlns="http://www.w3.org/2000/svg">
<g id="#ffffffff">
</g>
<g id="#8ea91dff">
<path fill="#8ea91d" opacity="1.00" d=" M 69.15 41.18 C 101.73 40.77 134.34 41.18 166.92 40.98 C 169.50 41.03 172.38 40.71 174.60 42.31 C 183.88 55.00 193.26 67.69 202.87 80.14 C 203.89 83.65 203.23 87.40 203.39 91.01 C 203.40 125.34 203.39 159.67 203.40 193.99 C 203.37 198.16 203.65 202.40 202.63 206.48 C 200.18 214.67 193.34 221.66 184.89 223.53 C 181.35 224.52 177.65 224.36 174.01 224.34 C 136.35 224.29 98.68 224.38 61.01 224.30 C 48.82 224.00 37.72 213.33 37.64 201.02 C 37.54 161.69 37.66 122.35 37.58 83.01 C 37.64 81.49 37.46 79.78 38.64 78.60 C 47.11 67.40 55.43 56.09 63.86 44.85 C 65.13 43.06 66.88 41.47 69.15 41.18 M 61.90 74.23 C 100.97 74.36 140.04 74.36 179.11 74.23 C 175.17 68.73 171.19 63.23 166.92 57.98 C 164.32 57.41 161.63 57.74 159.00 57.68 C 133.35 57.70 107.70 57.70 82.05 57.68 C 79.41 57.73 76.71 57.43 74.10 57.97 C 69.81 63.20 65.84 68.72 61.90 74.23 M 53.37 96.03 C 53.43 130.37 53.36 164.71 53.41 199.05 C 53.04 203.80 57.12 208.08 61.93 207.66 C 99.27 207.70 136.60 207.64 173.94 207.69 C 177.59 207.61 181.73 208.25 184.84 205.85 C 186.70 204.11 187.66 201.55 187.60 199.02 C 187.63 164.35 187.59 129.69 187.61 95.02 C 187.58 93.64 187.47 92.27 187.34 90.91 C 142.77 91.04 98.21 91.01 53.65 90.92 C 53.49 92.62 53.38 94.32 53.37 96.03 Z" />
<path fill="#8ea91d" opacity="1.00" d=" M 83.42 108.52 C 87.25 106.29 92.92 108.10 94.48 112.31 C 95.45 114.70 95.20 117.34 95.47 119.86 C 96.68 130.32 105.49 139.16 115.86 140.68 C 121.17 141.29 126.81 141.13 131.66 138.64 C 139.96 134.95 145.75 126.16 145.70 117.06 C 145.64 113.69 146.82 109.73 150.26 108.41 C 154.73 105.95 160.96 108.98 161.61 114.09 C 163.48 133.44 149.02 152.51 130.10 156.55 C 121.86 158.55 113.05 157.85 105.17 154.78 C 91.28 149.32 80.75 135.84 79.45 120.88 C 78.74 116.57 78.84 110.67 83.42 108.52 Z" />
</g>
</svg>
