<?xml version="1.0" encoding="utf-8"?>
<!-- Generator: Adobe Illustrator 16.0.3, SVG Export Plug-In . SVG Version: 6.00 Build 0)  -->
<!DOCTYPE svg PUBLIC "-//W3C//DTD SVG 1.1//EN" "http://www.w3.org/Graphics/SVG/1.1/DTD/svg11.dtd">
<svg version="1.1" id="Layer_1" xmlns="http://www.w3.org/2000/svg" xmlns:xlink="http://www.w3.org/1999/xlink" x="0px" y="0px"
	 width="660.115px" height="460.133px" viewBox="-19.117 162.089 660.115 460.133"
	 enable-background="new -19.117 162.089 660.115 460.133" xml:space="preserve">
<g>
	<g>
		<g>
			<path fill="#8EA91D" d="M569.157,366.552l-15.849-63.394c4.333-0.921,7.584-4.765,7.584-9.37v-10.222
				c0-22.191-18.055-40.246-40.246-40.246h-72.188v-21.083c0-10.92-8.884-19.804-19.804-19.804H60.689
				c-10.921,0-19.805,8.884-19.805,19.804V396c0,5.292,4.29,9.583,9.583,9.583c5.292,0,9.583-4.29,9.583-9.583V222.237
				c0-0.353,0.286-0.638,0.639-0.638h367.966c0.353,0,0.638,0.285,0.638,0.638v173.766c0,5.291,4.29,9.582,9.583,9.582
				c5.292,0,9.583-4.289,9.583-9.582v-10.863h113.04c0.009,0,0.017,0.002,0.024,0.002c0.01,0,0.019-0.001,0.026-0.001
				c13.91,0.01,25.721,9.14,29.777,21.72H561.53c-5.291,0-9.582,4.29-9.582,9.583v20.442c0,16.557,13.469,30.025,30.024,30.025
				h10.861v42.162h-25.057c-8.23-23.767-30.823-40.886-57.354-40.886s-49.124,17.119-57.354,40.886h-4.613v-72.188
				c0-5.291-4.29-9.583-9.583-9.583c-5.292,0-9.583,4.29-9.583,9.583v72.187H230.477c-8.231-23.767-30.824-40.886-57.354-40.886
				c-26.53,0-49.124,17.119-57.354,40.886H60.689c-0.353,0-0.639-0.286-0.639-0.639V487.35h41.524c5.291,0,9.582-4.289,9.582-9.582
				s-4.29-9.583-9.582-9.583H9.583c-5.292,0-9.583,4.29-9.583,9.583s4.29,9.582,9.583,9.582h31.303v21.082
				c0,10.921,8.883,19.804,19.804,19.804h51.762c-0.002,0.213-0.017,0.425-0.017,0.639c0,33.464,27.226,60.688,60.688,60.688
				s60.688-27.225,60.688-60.688c0-0.215-0.015-0.426-0.017-0.639h215.956c-0.002,0.213-0.017,0.425-0.017,0.639
				c0,33.464,27.226,60.688,60.688,60.688s60.688-27.225,60.688-60.688c0-0.215-0.015-0.426-0.017-0.639h31.32
				c5.292,0,9.583-4.29,9.583-9.582V416.441C612,391.206,593.38,370.239,569.157,366.552z M448.459,262.485h72.188
				c11.625,0,21.082,9.457,21.082,21.081v0.639h-93.27V262.485z M448.459,365.975v-62.606h85.148l15.651,62.606H448.459z
				 M173.123,570.401c-22.896,0-41.524-18.627-41.524-41.524s18.628-41.523,41.524-41.523s41.523,18.626,41.523,41.523
				S196.02,570.401,173.123,570.401z M510.426,570.401c-22.896,0-41.524-18.627-41.524-41.524s18.628-41.523,41.524-41.523
				c22.896,0,41.523,18.626,41.523,41.523S533.322,570.401,510.426,570.401z M592.835,447.745h-10.86
				c-5.988,0-10.86-4.872-10.86-10.86v-10.86h21.72L592.835,447.745L592.835,447.745z"/>
		</g>
	</g>
	<g>
		<g>
			<path fill="#8EA91D" d="M173.123,509.073c-10.921,0-19.804,8.884-19.804,19.804c0,10.921,8.883,19.805,19.804,19.805
				c10.92,0,19.804-8.884,19.804-19.805C192.927,517.957,184.043,509.073,173.123,509.073z"/>
		</g>
	</g>
	<g>
		<g>
			<path fill="#8EA91D" d="M510.426,509.073c-10.921,0-19.805,8.884-19.805,19.804c0,10.921,8.884,19.805,19.805,19.805
				c10.92,0,19.804-8.884,19.804-19.805C530.23,517.957,521.346,509.073,510.426,509.073z"/>
		</g>
	</g>
	<g>
		<g>
			<path fill="#8EA91D" d="M397.991,468.189H254.893c-5.291,0-9.582,4.289-9.582,9.582s4.29,9.583,9.582,9.583h143.099
				c5.291,0,9.582-4.29,9.582-9.583S403.283,468.189,397.991,468.189z"/>
		</g>
	</g>
	<g>
		<g>
			<path fill="#8EA91D" d="M152.681,427.303H30.025c-5.291,0-9.582,4.29-9.582,9.582c0,5.293,4.29,9.583,9.582,9.583h122.656
				c5.292,0,9.583-4.29,9.583-9.583C162.264,431.594,157.973,427.303,152.681,427.303z"/>
		</g>
	</g>
	<g>
		<g>
			<path fill="#8EA91D" d="M333.218,297.231c-3.741-3.741-9.81-3.741-13.551,0.001l-85.216,85.216l-44.331-44.331
				c-3.742-3.742-9.81-3.742-13.551,0c-3.743,3.742-3.743,9.809,0,13.552l51.106,51.106c1.87,1.872,4.323,2.807,6.775,2.807
				c2.451,0,4.905-0.935,6.774-2.807l91.991-91.991C336.959,307.04,336.959,300.974,333.218,297.231z"/>
		</g>
	</g>
</g>
</svg>
