<?xml version="1.0" encoding="UTF-8" ?>
<!DOCTYPE svg PUBLIC "-//W3C//DTD SVG 1.1//EN" "http://www.w3.org/Graphics/SVG/1.1/DTD/svg11.dtd">
<svg width="314pt" height="314pt" viewBox="0 0 314 314" version="1.1" xmlns="http://www.w3.org/2000/svg">
<g id="#ffffffff">
</g>
<g id="#9abd21ff">
<path fill="#9abd21" opacity="1.00" d=" M 123.33 35.37 C 125.17 34.43 127.91 35.20 128.37 37.38 C 130.01 42.87 131.43 48.43 132.83 53.98 C 134.00 58.01 127.32 60.02 125.89 56.21 C 124.21 50.87 122.86 45.41 121.47 39.99 C 120.82 38.21 121.51 36.11 123.33 35.37 Z" />
<path fill="#9abd21" opacity="1.00" d=" M 187.31 35.33 C 189.71 34.08 193.40 36.21 192.67 39.08 C 191.81 43.82 190.17 48.38 189.10 53.08 C 188.52 54.95 188.21 57.59 185.91 58.12 C 183.38 59.15 180.56 56.64 181.16 54.05 C 182.24 49.32 183.68 44.66 184.84 39.94 C 185.44 38.35 185.51 36.10 187.31 35.33 Z" />
<path fill="#9abd21" opacity="1.00" d=" M 131.18 64.28 C 132.85 63.51 135.33 64.15 135.96 66.00 C 136.94 68.56 137.74 71.23 137.99 73.97 C 138.34 76.53 135.08 78.15 132.93 77.28 C 130.64 76.61 130.66 73.82 129.92 71.96 C 129.20 69.45 127.98 65.58 131.18 64.28 Z" />
<path fill="#9abd21" opacity="1.00" d=" M 179.39 64.47 C 181.73 63.10 185.67 65.08 184.92 68.04 C 184.38 70.87 183.90 73.87 182.35 76.34 C 180.05 79.19 174.87 76.64 176.10 73.05 C 176.89 70.17 176.95 66.44 179.39 64.47 Z" />
<path fill="#9abd21" opacity="1.00" d=" M 68.32 67.34 C 70.68 65.67 72.93 67.88 74.46 69.54 C 77.47 72.82 80.94 75.67 83.76 79.12 C 84.97 81.71 82.75 84.57 80.02 84.56 C 77.96 84.05 76.65 82.22 75.17 80.84 C 72.58 78.01 69.60 75.55 67.15 72.60 C 65.72 70.99 66.61 68.37 68.32 67.34 Z" />
<path fill="#9abd21" opacity="1.00" d=" M 242.19 67.20 C 245.27 65.26 249.28 69.91 246.83 72.63 C 243.25 76.50 239.52 80.26 235.63 83.82 C 232.24 86.69 227.85 80.83 231.06 78.13 C 234.73 74.46 238.23 70.56 242.19 67.20 Z" />
<path fill="#9abd21" opacity="1.00" d=" M 97.61 95.50 C 98.62 94.04 100.00 92.62 101.95 93.01 C 138.66 92.98 175.37 93.02 212.08 92.99 C 214.92 92.54 216.30 95.40 217.76 97.25 C 219.92 100.56 222.72 103.46 224.45 107.03 C 225.38 110.29 220.87 113.06 218.44 110.67 C 216.22 108.30 214.57 105.48 212.59 102.92 C 205.83 112.32 198.94 121.62 192.15 131.00 C 205.80 131.00 219.46 131.00 233.12 131.00 C 231.45 128.66 229.41 126.51 228.28 123.84 C 227.30 120.65 231.54 117.77 234.07 120.00 C 236.69 122.71 238.55 126.05 240.92 128.98 C 242.31 131.05 244.70 133.14 243.91 135.92 C 242.86 137.78 241.39 139.34 240.06 141.00 C 214.99 171.62 189.96 202.27 164.90 232.89 C 162.88 235.22 161.26 237.95 158.81 239.86 C 156.98 240.97 154.72 240.01 153.61 238.36 C 145.21 228.07 136.84 217.76 128.39 207.52 C 127.18 206.03 125.85 204.60 124.99 202.87 C 123.86 200.45 126.35 197.37 128.97 198.01 C 130.56 198.04 131.47 199.47 132.42 200.52 C 137.81 207.25 143.33 213.88 148.77 220.57 C 141.35 193.12 133.84 165.70 126.38 138.25 C 111.41 138.24 96.44 138.26 81.47 138.25 C 93.77 153.39 106.18 168.44 118.50 183.56 C 120.29 185.25 120.26 188.83 117.73 189.80 C 115.60 191.13 113.45 189.41 112.22 187.73 C 98.48 170.83 84.60 154.04 70.89 137.11 C 69.29 135.44 70.03 133.01 71.37 131.44 C 80.14 119.47 88.89 107.49 97.61 95.50 M 108.77 100.25 C 115.58 109.62 122.43 118.96 129.26 128.32 C 136.07 118.95 142.90 109.59 149.76 100.25 C 136.09 100.25 122.43 100.26 108.77 100.25 M 164.33 100.25 C 171.17 109.60 177.98 118.97 184.84 128.30 C 191.60 118.93 198.51 109.66 205.26 100.27 C 191.62 100.22 177.97 100.27 164.33 100.25 M 101.44 102.97 C 94.62 112.32 87.82 121.68 80.96 131.00 C 94.61 131.00 108.26 131.01 121.92 130.99 C 115.11 121.64 108.30 112.29 101.44 102.97 M 136.59 131.00 C 150.24 131.00 163.88 131.00 177.53 131.00 C 170.68 121.66 163.87 112.30 157.03 102.95 C 150.24 112.32 143.36 121.62 136.59 131.00 M 134.09 138.24 C 141.74 166.26 149.30 194.30 157.06 222.28 C 164.72 194.27 172.37 166.26 179.98 138.23 C 164.68 138.27 149.38 138.25 134.09 138.24 M 187.71 138.25 C 180.24 165.68 172.73 193.10 165.30 220.55 C 187.74 193.14 210.17 165.73 232.57 138.28 C 217.61 138.21 202.66 138.28 187.71 138.25 Z" />
<path fill="#9abd21" opacity="1.00" d=" M 37.29 122.13 C 38.84 121.28 40.58 122.36 42.17 122.60 C 46.04 123.82 50.09 124.46 53.86 125.96 C 56.82 128.01 54.70 133.62 51.03 132.63 C 46.35 131.55 41.67 130.33 37.10 128.87 C 34.12 127.83 34.50 123.15 37.29 122.13 Z" />
<path fill="#9abd21" opacity="1.00" d=" M 273.22 122.24 C 277.08 119.86 281.26 125.87 277.59 128.51 C 272.89 130.38 267.85 131.41 262.95 132.64 C 259.27 133.65 257.14 128.06 260.10 125.98 C 264.35 124.35 268.87 123.55 273.22 122.24 Z" />
<path fill="#9abd21" opacity="1.00" d=" M 73.50 175.78 C 74.86 175.51 76.26 175.10 77.67 175.32 C 80.49 176.16 81.06 180.99 78.20 182.12 C 75.54 183.17 72.74 183.90 69.91 184.28 C 66.72 184.19 65.68 179.72 67.67 177.67 C 69.52 176.79 71.52 176.28 73.50 175.78 Z" />
<path fill="#9abd21" opacity="1.00" d=" M 236.29 175.33 C 239.22 175.12 242.09 176.20 244.86 177.05 C 247.76 177.49 247.92 181.45 246.33 183.31 C 244.49 185.05 241.98 183.87 239.88 183.44 C 237.90 182.77 235.41 182.57 234.13 180.69 C 233.59 178.71 234.10 176.05 236.29 175.33 Z" />
<path fill="#9abd21" opacity="1.00" d=" M 55.51 180.63 C 57.61 179.69 60.38 180.64 60.81 183.07 C 61.63 185.18 59.98 187.43 57.85 187.73 C 51.83 189.32 45.85 191.07 39.80 192.51 C 37.16 193.49 34.85 190.49 35.49 188.02 C 35.36 186.08 37.66 185.50 39.10 185.04 C 44.57 183.58 50.04 182.10 55.51 180.63 Z" />
<path fill="#9abd21" opacity="1.00" d=" M 255.44 180.46 C 257.43 179.95 259.44 181.01 261.39 181.39 C 266.59 183.03 272.04 183.92 277.14 185.88 C 280.49 187.73 277.90 193.85 274.22 192.52 C 267.89 190.96 261.59 189.24 255.33 187.44 C 252.08 186.55 252.44 181.43 255.44 180.46 Z" />
<path fill="#9abd21" opacity="1.00" d=" M 96.53 212.57 C 98.59 210.79 100.44 207.46 103.63 208.33 C 106.41 209.19 107.26 213.12 104.89 214.94 C 99.41 220.43 94.01 226.03 88.37 231.36 C 85.74 233.79 82.57 230.86 81.88 228.14 C 85.91 222.22 91.75 217.85 96.53 212.57 Z" />
<path fill="#9abd21" opacity="1.00" d=" M 208.63 214.36 C 205.94 211.75 209.31 207.10 212.67 208.34 C 216.04 210.55 218.49 213.86 221.44 216.57 C 225.00 220.44 229.35 223.65 232.12 228.19 C 231.27 229.64 230.77 231.64 228.88 232.03 C 226.95 232.97 225.29 231.09 224.01 229.91 C 218.94 224.67 213.59 219.70 208.63 214.36 Z" />
<path fill="#9abd21" opacity="1.00" d=" M 74.33 235.32 C 77.08 234.01 80.32 237.24 79.32 240.05 C 77.56 242.68 75.20 244.88 72.75 246.87 C 70.04 249.11 65.66 245.32 67.32 242.27 C 69.22 239.59 71.60 237.16 74.33 235.32 Z" />
<path fill="#9abd21" opacity="1.00" d=" M 237.25 235.25 C 238.73 234.48 240.31 235.57 241.39 236.55 C 243.30 238.32 245.29 240.10 246.70 242.32 C 248.08 245.08 244.80 248.40 241.99 247.35 C 239.35 245.59 237.14 243.21 235.14 240.77 C 233.57 238.90 235.09 235.87 237.25 235.25 Z" />
<path fill="#9abd21" opacity="1.00" d=" M 132.33 243.33 C 135.03 242.46 137.83 245.29 136.85 247.98 C 136.17 250.69 135.88 255.41 132.02 255.04 C 129.42 255.18 127.77 252.40 128.63 250.07 C 129.31 247.68 129.40 244.07 132.33 243.33 Z" />
<path fill="#9abd21" opacity="1.00" d=" M 179.40 243.54 C 180.95 242.88 183.17 243.40 183.87 245.04 C 184.91 247.48 185.71 250.17 185.46 252.85 C 184.25 255.70 179.27 255.94 178.43 252.71 C 177.50 249.85 175.40 244.95 179.40 243.54 Z" />
<path fill="#9abd21" opacity="1.00" d=" M 127.39 261.45 C 130.04 260.43 133.06 263.28 132.03 266.00 C 131.00 269.92 130.20 273.95 128.64 277.70 C 126.76 279.80 122.48 278.86 122.02 275.92 C 122.23 272.61 123.52 269.49 124.24 266.28 C 124.81 264.46 125.13 261.88 127.39 261.45 Z" />
<path fill="#9abd21" opacity="1.00" d=" M 183.28 262.12 C 185.16 260.72 188.73 261.39 189.08 264.03 C 190.12 267.97 191.58 271.88 191.98 275.95 C 191.65 279.42 186.28 280.12 185.04 276.91 C 183.71 273.35 182.88 269.61 181.95 265.93 C 181.48 264.53 182.04 262.92 183.28 262.12 Z" />
</g>
</svg>
