<?xml version="1.0" encoding="UTF-8" ?>
<!DOCTYPE svg PUBLIC "-//W3C//DTD SVG 1.1//EN" "http://www.w3.org/Graphics/SVG/1.1/DTD/svg11.dtd">
<svg width="512pt" height="512pt" viewBox="0 0 512 512" version="1.1" xmlns="http://www.w3.org/2000/svg">
<g id="#ffffffff">
</g>
<g id="#8ea91dff">
<path fill="#8ea91d" opacity="1.00" d=" M 225.27 91.37 C 234.44 89.74 243.65 87.76 253.01 87.98 C 279.56 87.43 306.36 94.15 329.20 107.80 C 351.67 120.81 371.17 139.45 383.45 162.46 C 389.33 173.47 393.73 185.26 396.45 197.44 C 396.95 199.22 397.19 201.17 398.30 202.71 C 400.96 204.27 404.08 204.81 406.84 206.19 C 416.48 210.55 422.91 220.59 423.97 230.96 C 424.06 251.31 423.94 271.65 424.03 292.00 C 424.67 302.41 419.68 313.11 411.09 319.08 C 407.81 321.49 403.91 322.77 400.16 324.21 C 397.16 325.18 397.04 328.79 396.24 331.33 C 391.64 350.80 381.27 368.93 366.43 382.41 C 347.19 400.01 322.03 411.21 295.96 413.02 C 293.43 413.34 290.07 412.96 288.79 415.73 C 285.87 420.41 280.80 424.26 275.06 424.02 C 262.69 424.00 250.32 423.97 237.95 424.03 C 229.98 424.51 222.22 418.05 221.56 410.02 C 220.47 401.68 227.37 393.09 235.92 393.01 C 249.30 392.58 262.70 392.61 276.09 393.02 C 280.49 392.94 284.56 395.39 287.12 398.88 C 288.72 400.63 290.23 403.42 293.01 402.98 C 316.32 401.32 339.67 393.02 357.11 377.14 C 372.14 363.39 384.11 345.29 387.19 324.86 C 385.67 325.11 383.94 324.76 382.59 325.61 C 380.39 328.09 379.33 331.55 376.44 333.40 C 369.43 338.19 358.54 336.33 353.73 329.27 C 351.50 325.99 351.21 321.89 351.23 318.05 C 351.31 281.02 351.17 244.00 351.29 206.98 C 351.16 198.66 358.56 191.09 367.01 191.69 C 374.11 191.18 380.17 196.23 382.48 202.69 C 383.96 202.73 385.44 202.76 386.93 202.80 C 382.99 177.30 369.02 154.12 350.68 136.31 C 328.11 114.25 297.54 100.75 266.09 98.51 C 232.38 95.73 197.90 106.43 171.46 127.46 C 147.92 146.03 130.24 172.73 124.87 202.45 C 126.65 202.23 129.13 203.33 130.15 201.29 C 132.17 198.65 133.87 195.60 136.81 193.84 C 143.71 189.23 153.84 191.91 158.39 198.60 C 160.41 201.64 160.75 205.39 160.77 208.94 C 160.73 245.65 160.76 282.36 160.75 319.06 C 160.75 323.96 159.18 329.10 155.41 332.42 C 150.03 337.13 141.51 337.11 135.60 333.40 C 132.62 331.59 131.47 328.13 129.44 325.49 C 126.80 324.34 123.77 324.89 120.97 324.75 C 112.97 325.05 104.78 322.57 98.61 317.39 C 92.84 312.52 89.41 305.31 88.13 297.96 C 87.82 290.29 88.04 282.61 88.01 274.94 C 87.24 269.65 96.42 268.36 97.68 273.28 C 98.70 281.40 97.23 289.68 98.49 297.80 C 99.72 305.75 106.38 312.17 114.05 314.09 C 118.93 315.29 123.99 314.73 128.95 314.74 C 129.06 280.84 128.97 246.94 129.00 213.04 C 123.15 212.98 117.03 212.24 111.44 214.40 C 104.46 217.01 99.26 223.67 98.30 231.04 C 97.52 237.32 98.41 243.68 97.85 249.97 C 97.63 252.33 95.67 255.16 92.99 254.47 C 91.52 254.28 90.08 253.86 88.76 253.21 C 87.45 250.70 88.15 247.71 87.98 245.00 C 88.32 238.14 87.00 231.02 89.47 224.43 C 91.55 217.97 95.61 212.05 101.35 208.33 C 104.69 205.98 108.63 204.81 112.37 203.27 C 114.51 202.65 114.60 200.10 115.15 198.31 C 120.51 172.92 133.83 149.44 152.16 131.16 C 172.02 111.22 197.74 97.21 225.27 91.37 M 142.32 202.17 C 140.94 202.80 139.94 204.14 139.69 205.63 C 138.98 209.38 139.30 213.21 139.24 217.00 C 139.26 250.69 139.27 284.38 139.24 318.06 C 139.32 320.36 139.26 323.10 141.14 324.77 C 143.32 326.48 146.68 326.47 148.86 324.77 C 150.66 323.06 150.61 320.36 150.75 318.07 C 150.76 282.36 150.72 246.64 150.76 210.93 C 150.63 208.49 150.83 205.80 149.44 203.67 C 147.87 201.43 144.67 201.32 142.32 202.17 M 364.32 202.17 C 361.43 203.54 361.36 207.18 361.25 209.94 C 361.24 245.64 361.27 281.35 361.24 317.06 C 361.31 319.05 361.28 321.12 362.00 323.01 C 363.52 327.07 370.52 327.18 371.99 323.00 C 372.76 320.77 372.69 318.37 372.77 316.05 C 372.71 281.35 372.78 246.64 372.73 211.94 C 372.56 209.40 372.83 206.69 371.80 204.30 C 370.47 201.56 366.88 201.18 364.32 202.17 M 383.00 212.63 C 383.01 246.76 382.97 280.90 383.02 315.03 C 389.96 314.62 397.50 315.48 403.73 311.74 C 410.29 308.02 414.21 300.56 413.99 293.07 C 413.99 273.36 414.05 253.64 413.96 233.92 C 413.99 226.29 409.66 218.65 402.67 215.35 C 396.54 212.49 389.58 213.00 383.00 212.63 M 235.32 403.38 C 231.13 404.39 230.63 410.75 234.09 412.91 C 236.47 414.28 239.35 413.94 241.99 414.03 C 252.68 413.90 263.38 414.13 274.07 413.94 C 277.32 414.12 280.64 411.50 280.16 408.03 C 280.30 404.77 277.02 402.78 274.07 403.02 C 263.04 402.93 252.00 403.07 240.97 402.96 C 239.08 403.00 237.15 402.87 235.32 403.38 Z" />
<path fill="#8ea91d" opacity="1.00" d=" M 221.64 186.63 C 244.91 176.10 273.22 176.88 295.56 189.47 C 298.29 191.01 301.14 192.49 303.41 194.69 C 305.88 197.23 304.09 202.05 300.71 202.72 C 298.37 203.20 296.32 201.71 294.40 200.61 C 279.88 191.46 262.03 187.32 245.02 190.13 C 227.31 192.92 210.80 202.67 199.77 216.81 C 191.94 226.73 186.88 238.79 185.33 251.34 C 182.72 270.85 189.16 291.19 202.04 306.00 C 215.55 321.74 236.18 331.23 256.98 330.52 C 263.52 330.58 269.87 328.91 276.20 327.47 C 279.24 326.84 282.48 326.33 285.45 327.56 C 293.10 330.43 300.42 334.11 307.97 337.21 C 308.07 328.79 307.94 320.36 307.98 311.94 C 307.79 308.45 310.20 305.72 312.20 303.15 C 322.33 290.51 327.79 274.20 327.25 258.01 C 326.91 245.03 322.76 232.22 315.64 221.38 C 314.43 219.22 312.22 216.51 314.06 214.06 C 315.57 211.20 319.97 209.95 322.03 212.93 C 341.51 238.69 342.47 276.74 324.50 303.55 C 322.26 307.61 317.81 310.87 318.01 315.91 C 317.92 324.96 318.07 334.02 318.00 343.08 C 317.94 345.38 317.70 348.18 315.54 349.54 C 313.45 350.56 311.11 349.67 309.11 348.90 C 300.93 345.41 292.89 341.60 284.65 338.27 C 280.58 336.45 276.28 338.44 272.20 339.14 C 246.53 344.54 218.61 336.44 199.69 318.30 C 184.92 304.19 175.59 284.40 174.66 263.94 C 172.88 231.83 192.38 199.89 221.64 186.63 Z" />
<path fill="#8ea91d" opacity="1.00" d=" M 216.57 240.62 C 222.52 231.29 236.97 229.46 245.20 236.80 C 252.66 242.85 254.25 254.73 248.44 262.43 C 243.45 268.59 236.78 273.10 231.41 278.90 C 237.16 279.30 242.99 278.52 248.71 279.32 C 252.96 279.98 253.01 286.98 248.80 287.76 C 243.60 288.73 238.26 288.09 233.00 288.25 C 228.06 288.11 223.07 288.65 218.18 287.89 C 214.60 287.47 213.36 282.34 216.19 280.19 C 223.66 272.98 231.63 266.29 239.20 259.17 C 241.46 257.10 243.09 254.18 242.78 251.03 C 242.79 245.22 236.92 240.47 231.25 241.46 C 227.41 241.94 225.03 245.33 221.78 247.03 C 218.10 248.58 214.35 243.88 216.57 240.62 Z" />
<path fill="#8ea91d" opacity="1.00" d=" M 281.77 235.79 C 283.19 234.26 284.63 232.04 287.00 232.23 C 289.45 232.32 291.52 234.50 291.41 236.98 C 291.68 246.31 291.37 255.65 291.49 264.99 C 291.24 268.84 296.57 270.14 296.55 273.98 C 296.46 276.63 293.41 277.27 291.58 278.50 C 291.46 280.89 291.67 283.38 290.90 285.69 C 289.75 288.38 286.02 288.63 283.82 287.16 C 281.83 284.51 282.68 280.98 282.49 277.92 C 274.98 277.50 267.46 277.95 259.95 277.69 C 257.59 277.64 254.99 277.00 253.62 274.89 C 252.82 272.01 254.73 269.51 256.40 267.40 C 264.87 256.87 273.30 246.32 281.77 235.79 M 267.59 268.35 C 272.46 268.59 277.33 268.53 282.21 268.42 C 282.24 262.44 282.39 256.45 282.09 250.47 C 276.93 256.15 272.18 262.21 267.59 268.35 Z" />
</g>
</svg>
