<svg id="SvgjsSvg1019" width="288" height="288" xmlns="http://www.w3.org/2000/svg" version="1.1"
    xmlns:xlink="http://www.w3.org/1999/xlink" xmlns:svgjs="http://svgjs.com/svgjs">
    <defs id="SvgjsDefs1020"></defs>
    <g id="SvgjsG1021"><svg xmlns="http://www.w3.org/2000/svg" width="288" height="288" viewBox="0 0 345 346">
            <path fill="#9a3338"
                d="M78.31 23.38C85.56 21.92 92.57 25.54 97.97 30.07 112.51 42.65 124.61 57.79 135.16 73.81 141.32 83.05 148.14 92.63 149.45 103.97 150.15 109.98 146.64 115.5 142.16 119.17 133.86 126.09 124.67 131.87 115.44 137.46 111.53 140.08 107.37 142.66 104.6 146.55 103.79 147.56 104.86 148.85 105.1 149.91 113.59 169.09 126.77 185.75 141.2 200.79 152.21 211.58 164.02 221.64 176.93 230.09 183.6 234.11 190.29 238.42 197.76 240.77 201.04 239.23 203.19 236.1 205.27 233.26 210.91 224.87 215.7 215.92 221.92 207.91 226.05 201.72 231.91 195.35 239.98 195.42 252.4 196.64 262.94 204.18 272.94 211.06 288.55 221.38 303.2 233.35 315.39 247.6 319.08 252.62 322.85 258.52 321.92 265.06 321.05 272.49 317.3 279.16 313.38 285.39 307.81 293.62 301.41 301.39 293.65 307.66 287.51 312.72 281.4 318.31 273.63 320.69 267.38 323.15 260.56 322.18 254.02 322.32 214.37 319.8 177.17 302.56 145.01 280.01 115.55 259.3 89.59 233.66 68.52 204.45 59.45 192.14 51.24 179.16 44.57 165.39 33.69 143.96 25.88 120.72 23.6 96.71 22.5 85.75 22.05 73.81 28.02 64.05 38.21 48.5 51.97 35.05 68.6 26.56 71.69 25.11 74.97 24.05 78.31 23.38M78.4 38.29C71.05 40.99 64.48 45.49 58.65 50.66 50.25 58.01 42.27 66.53 38.33 77.17 35.98 83.21 37.16 89.77 38 95.98 39.59 115.99 46.08 135.31 54.67 153.35 67.24 179.08 83.69 202.88 103.06 223.97 109.18 230.16 115.29 236.37 121.53 242.45 131.82 251.95 142.78 260.74 154.3 268.72 173.33 281.78 193.73 293.15 215.73 300.36 231.61 305.35 248.27 308.73 264.99 307.74 271.38 306.69 276.86 302.75 281.83 298.81 290.74 292.07 298.02 283.27 303.58 273.62 305.17 269.95 308.12 266.24 307.4 262.06 303.59 254.75 297.32 249.19 291.54 243.47 278.53 232.16 264.61 221.74 249.38 213.59 246.48 212.2 243.53 210.35 240.22 210.34 237.06 211.04 235.25 214.03 233.42 216.42 225.93 227.27 219.69 239.03 210.97 249 208.36 252.01 204.84 254.2 200.94 255.07 195.24 256.61 189.71 253.62 184.64 251.39 164.55 241.2 146.8 226.92 130.93 211.05 117.75 197.31 105.62 182.36 96.48 165.6 93.96 160.54 91.11 155.55 89.77 150.02 88.77 143.79 91.96 137.6 96.55 133.56 107.15 123.69 120.9 118.16 132.05 109.02 133.59 107.57 135.91 105.59 134.86 103.23 130.46 92.05 123.62 82.05 116.7 72.3 108.44 61.37 99.9 50.43 89.22 41.75 86.11 39.56 82.43 35.95 78.4 38.29zM192.4 23.55C203.41 22.26 214.57 24.34 225.31 26.74 248.26 32.13 269.35 44.4 285.92 61.09 304.22 80.26 316.76 104.99 320.55 131.29 321.68 138.08 322.39 145.02 321.82 151.9 321.04 156.39 315.36 159.04 311.44 156.63 308.51 155.37 307.64 151.95 307.82 149.04 307.69 131.66 303.32 114.28 295.14 98.93 278.06 65.11 242.99 41.18 205.23 37.82 199.86 36.36 192.51 39.55 188.88 34.08 185.86 30.53 188.22 24.87 192.4 23.55z"
                class="color8ea91d svgShape"></path>
            <path fill="#9a3338"
                d="M192.41 68.61C197.22 67.44 202.17 68.78 207.03 69.01 224.98 71.51 242.02 80.34 254.41 93.59 268.99 108.75 277.21 129.83 276.82 150.85 276.6 155.48 271.56 159 267.2 157.03 262.49 155.55 262.69 150.06 262.38 146.07 261.76 132.3 256.56 118.81 247.84 108.15 238.18 95.86 224.05 87.33 208.84 83.92 203.65 82.91 198.33 82.84 193.09 82.11 189.92 81.9 188.23 78.69 187.59 75.95 187.27 72.85 189.42 69.54 192.41 68.61zM192.36 113.5C212.18 110.37 231.85 128.14 231.82 147.96 231.78 150.39 232.26 153.36 230.25 155.2 227.99 157.86 223.53 158.44 220.79 156.2 217.86 154.18 217.61 150.27 217.3 147.04 216.96 138.49 210.03 131.53 202.38 128.62 198.13 126.94 192.6 128.52 189.27 124.79 185.91 121.34 187.75 114.71 192.36 113.5z"
                class="color8ea91d svgShape"></path>
        </svg></g>
</svg>