<?xml version="1.0" encoding="UTF-8" ?>
<!DOCTYPE svg PUBLIC "-//W3C//DTD SVG 1.1//EN" "http://www.w3.org/Graphics/SVG/1.1/DTD/svg11.dtd">
<svg width="316pt" height="316pt" viewBox="0 0 316 316" version="1.1" xmlns="http://www.w3.org/2000/svg">
<g id="#ffffffff">
</g>
<g id="#9abd21ff">
<path fill="#9abd21" opacity="1.00" d=" M 55.81 42.82 C 82.12 42.73 108.43 42.64 134.73 42.86 C 134.81 49.30 134.66 55.75 134.81 62.19 C 150.12 62.27 165.43 62.36 180.73 62.14 C 180.81 55.70 180.66 49.25 180.81 42.81 C 207.12 42.73 233.43 42.64 259.73 42.86 C 259.80 49.29 259.66 55.72 259.81 62.14 C 262.38 62.22 264.96 62.28 267.53 62.35 C 267.50 64.89 267.51 67.42 267.54 69.95 C 264.98 70.17 262.42 70.27 259.86 70.38 C 259.59 137.30 259.86 204.24 259.72 271.16 C 255.32 267.24 251.57 262.34 246.00 259.99 C 240.32 257.21 232.86 256.48 227.65 260.65 C 222.82 264.48 218.86 269.67 212.88 271.82 C 202.61 275.54 190.93 272.11 182.84 265.21 C 181.58 264.17 180.51 262.77 180.75 261.04 C 180.72 197.45 180.79 133.87 180.72 70.28 C 165.43 70.22 150.15 70.24 134.87 70.27 C 134.58 133.86 134.84 197.45 134.74 261.04 C 135.10 264.03 132.16 265.59 130.15 267.15 C 121.69 273.23 109.86 275.58 100.29 270.76 C 94.66 267.96 91.10 262.44 85.74 259.29 C 80.33 256.50 73.75 257.74 68.56 260.42 C 63.59 262.80 60.21 267.30 55.89 270.57 C 55.55 203.86 55.86 137.13 55.74 70.41 C 53.31 70.28 50.88 70.15 48.46 69.92 C 48.49 67.41 48.50 64.90 48.47 62.39 C 50.89 62.28 53.31 62.19 55.73 62.06 C 55.81 55.64 55.66 49.23 55.81 42.82 M 63.81 50.81 C 63.72 118.36 63.68 185.91 63.83 253.45 C 70.58 250.35 78.25 248.48 85.60 250.51 C 91.01 251.88 94.92 256.08 99.11 259.47 C 99.46 241.92 99.13 224.37 99.27 206.83 C 101.91 206.77 104.55 206.75 107.18 206.76 C 107.38 226.17 107.14 245.57 107.30 264.98 C 114.22 266.24 121.12 263.77 126.67 259.70 C 126.85 190.09 126.72 120.48 126.73 50.87 C 105.76 50.64 84.78 50.74 63.81 50.81 M 188.81 50.81 C 188.66 91.54 188.79 132.27 188.75 173.00 C 188.86 201.93 188.53 230.88 188.91 259.81 C 194.59 263.92 201.66 266.33 208.69 264.87 C 208.88 245.50 208.61 226.13 208.82 206.76 C 211.45 206.75 214.09 206.77 216.73 206.83 C 216.85 224.27 216.59 241.72 216.86 259.16 C 220.71 255.82 224.50 252.03 229.55 250.60 C 237.01 248.46 244.99 250.16 251.78 253.63 C 251.70 186.04 251.79 118.45 251.73 50.86 C 230.76 50.64 209.78 50.73 188.81 50.81 Z" />
<path fill="#9abd21" opacity="1.00" d=" M 33.04 62.23 C 35.68 62.24 38.32 62.25 40.96 62.23 C 40.99 64.90 41.00 67.56 41.00 70.23 C 38.33 70.25 35.67 70.25 33.00 70.23 C 33.00 67.56 33.01 64.89 33.04 62.23 Z" />
<path fill="#9abd21" opacity="1.00" d=" M 72.04 62.25 C 87.68 62.25 103.32 62.25 118.96 62.25 C 118.99 64.90 119.00 67.55 119.00 70.19 C 103.33 70.29 87.67 70.29 72.00 70.19 C 72.00 67.55 72.01 64.90 72.04 62.25 Z" />
<path fill="#9abd21" opacity="1.00" d=" M 196.47 62.30 C 212.16 62.22 227.84 62.21 243.53 62.30 C 243.50 64.87 243.51 67.45 243.54 70.02 C 227.86 70.41 212.14 70.41 196.46 70.02 C 196.49 67.45 196.50 64.87 196.47 62.30 Z" />
<path fill="#9abd21" opacity="1.00" d=" M 275.04 62.23 C 277.68 62.25 280.32 62.25 282.96 62.23 C 282.99 64.90 283.00 67.56 283.00 70.23 C 280.33 70.25 277.66 70.25 275.00 70.23 C 275.00 67.56 275.01 64.90 275.04 62.23 Z" />
<path fill="#9abd21" opacity="1.00" d=" M 79.99 93.46 C 82.56 93.49 85.13 93.50 87.70 93.47 C 87.81 111.70 87.74 129.94 87.73 148.17 C 85.09 148.23 82.45 148.25 79.82 148.24 C 79.81 129.98 79.48 111.71 79.99 93.46 Z" />
<path fill="#9abd21" opacity="1.00" d=" M 224.30 93.47 C 226.87 93.50 229.44 93.49 232.02 93.46 C 232.52 111.71 232.19 129.98 232.19 148.24 C 229.54 148.25 226.91 148.23 224.27 148.17 C 224.26 129.94 224.19 111.70 224.30 93.47 Z" />
</g>
</svg>
