<?xml version="1.0" encoding="UTF-8" ?>
<!DOCTYPE svg PUBLIC "-//W3C//DTD SVG 1.1//EN" "http://www.w3.org/Graphics/SVG/1.1/DTD/svg11.dtd">
<svg width="239pt" height="201pt" viewBox="0 0 239 201" version="1.1" xmlns="http://www.w3.org/2000/svg">
<g id="#ffffffff">
</g>
<g id="#8ea91dff">
<path fill="#8ea91d" opacity="1.00" d=" M 92.27 17.33 C 104.76 16.65 117.50 21.80 125.66 31.36 C 139.89 47.07 139.14 74.04 123.66 88.66 C 110.93 102.04 88.75 104.43 73.15 94.79 C 62.79 88.67 55.39 77.75 53.66 65.83 C 52.05 55.34 54.15 44.06 60.34 35.32 C 67.42 24.76 79.57 17.95 92.27 17.33 M 87.55 34.86 C 78.91 37.01 71.79 44.31 69.87 53.00 C 68.41 60.60 69.57 69.16 74.88 75.10 C 83.99 86.55 103.40 87.12 113.13 76.15 C 122.71 66.55 121.89 49.16 111.67 40.33 C 105.33 34.33 95.83 32.97 87.55 34.86 Z" />
<path fill="#8ea91d" opacity="1.00" d=" M 149.16 19.21 C 151.57 17.77 154.43 18.92 156.88 19.65 C 168.96 23.22 179.08 32.91 183.04 44.88 C 187.34 56.20 186.19 69.13 180.99 79.95 C 175.81 89.63 166.50 96.86 156.08 100.11 C 152.30 101.45 147.59 100.12 145.69 96.42 C 142.82 92.15 145.05 85.41 150.12 84.13 C 160.92 81.52 169.77 71.35 169.65 60.04 C 170.38 48.64 162.03 37.57 150.97 34.91 C 143.72 33.57 142.36 22.27 149.16 19.21 Z" />
<path fill="#8ea91d" opacity="1.00" d=" M 58.36 117.50 C 80.90 117.17 103.47 117.47 126.02 117.35 C 137.53 117.15 149.21 121.40 157.29 129.72 C 165.37 137.91 169.43 149.56 169.19 160.98 C 168.91 166.88 169.74 172.88 168.57 178.70 C 167.17 184.23 159.13 185.76 155.47 181.58 C 152.01 177.89 153.44 172.52 153.17 167.98 C 152.88 162.04 154.05 155.84 151.83 150.16 C 148.52 140.76 139.05 133.89 129.03 134.01 C 106.00 133.97 82.97 133.96 59.94 134.01 C 50.70 133.94 41.89 139.80 38.03 148.13 C 34.52 155.27 36.22 163.42 35.85 171.06 C 35.84 175.30 36.06 181.30 31.31 183.18 C 26.44 185.93 19.52 181.71 19.99 176.07 C 20.47 164.58 18.18 152.30 23.69 141.64 C 29.55 127.91 43.57 118.54 58.36 117.50 Z" />
<path fill="#8ea91d" opacity="1.00" d=" M 185.10 118.93 C 204.37 120.37 219.84 139.70 218.34 158.84 C 217.54 165.51 218.27 172.24 217.88 178.93 C 216.21 183.75 209.44 185.65 205.49 182.39 C 201.68 179.92 202.36 174.89 202.37 170.99 C 202.14 164.27 203.21 157.34 201.00 150.83 C 198.67 142.99 192.06 136.68 184.11 134.75 C 179.44 133.70 176.66 128.00 178.60 123.66 C 179.50 120.86 182.51 119.66 185.10 118.93 Z" />
</g>
</svg>
