<?xml version="1.0" encoding="UTF-8" ?>
<!DOCTYPE svg PUBLIC "-//W3C//DTD SVG 1.1//EN" "http://www.w3.org/Graphics/SVG/1.1/DTD/svg11.dtd">
<svg width="391pt" height="391pt" viewBox="0 0 391 391" version="1.1" xmlns="http://www.w3.org/2000/svg">
<g id="#ffffffff">
</g>
<g id="#dd6066ff">
<path fill="#dd6066" opacity="1.00" d=" M 137.60 53.71 C 151.80 48.55 166.81 45.01 182.00 45.39 C 195.31 45.28 208.45 48.37 220.99 52.63 C 236.04 57.49 249.62 66.17 261.45 76.56 C 280.79 93.51 294.08 117.07 299.40 142.17 C 301.90 153.27 301.77 164.71 301.40 176.02 C 300.18 196.77 292.40 216.66 281.31 234.07 C 300.62 253.64 320.22 272.92 339.56 292.47 C 345.61 298.45 346.90 307.81 344.92 315.80 C 341.39 327.42 327.82 335.20 316.12 331.35 C 310.64 330.15 306.40 326.28 302.56 322.44 C 284.08 304.06 265.82 285.46 247.20 267.23 C 233.48 276.83 217.41 282.65 201.03 285.70 C 170.57 290.76 138.21 283.72 112.73 266.24 C 106.59 261.79 100.40 257.34 95.06 251.93 C 75.35 231.54 62.41 204.43 60.45 176.02 C 60.27 165.44 59.84 154.74 62.10 144.33 C 69.21 103.71 99.11 68.25 137.60 53.71 M 171.33 74.88 C 159.96 76.13 148.84 79.46 138.63 84.60 C 122.09 92.82 108.67 106.65 99.71 122.69 C 88.09 144.52 84.71 171.24 93.14 194.76 C 99.23 214.55 112.59 231.70 129.65 243.27 C 138.72 249.25 148.86 253.52 159.35 256.25 C 169.29 258.83 179.65 258.84 189.83 258.32 C 211.61 256.45 232.15 245.89 247.42 230.43 C 261.12 215.86 270.20 196.92 272.45 177.02 C 273.01 166.10 273.28 154.94 270.47 144.28 C 263.61 116.68 243.16 92.95 217.04 81.78 C 202.79 75.44 186.79 73.30 171.33 74.88 Z" />
</g>
</svg>
