<?xml version="1.0" encoding="utf-8"?>
<!-- Generator: Adobe Illustrator 16.0.3, SVG Export Plug-In . SVG Version: 6.00 Build 0)  -->
<!DOCTYPE svg PUBLIC "-//W3C//DTD SVG 1.1//EN" "http://www.w3.org/Graphics/SVG/1.1/DTD/svg11.dtd">
<svg version="1.1" id="Layer_1" xmlns="http://www.w3.org/2000/svg" xmlns:xlink="http://www.w3.org/1999/xlink" x="0px" y="0px"
	 width="237px" height="188px" viewBox="164.5 26.5 237 188" enable-background="new 164.5 26.5 237 188" xml:space="preserve">
<g id="_x23_ffffffff">
</g>
<g id="_x23_000000ff">
	<path fill="#FF001F" d="M217.729,68.997c4.584-4.59,9.167-9.179,13.757-13.751c17.16,17.195,34.36,34.355,51.526,51.544
		c17.121-17.218,34.361-34.321,51.476-51.544c4.624,4.55,9.179,9.167,13.779,13.751c-17.149,17.177-34.331,34.321-51.48,51.493
		c17.166,17.166,34.338,34.32,51.486,51.492c-4.606,4.584-9.185,9.19-13.785,13.773c-17.172-17.148-34.321-34.32-51.486-51.475
		c-17.178,17.144-34.315,34.326-51.499,51.475c-4.561-4.606-9.213-9.127-13.723-13.791c17.177-17.126,34.31-34.292,51.458-51.44
		C252.078,103.34,234.889,86.186,217.729,68.997z"/>
</g>
</svg>
