<?xml version="1.0" encoding="utf-8"?>
<!-- Generator: Adobe Illustrator 16.0.3, SVG Export Plug-In . SVG Version: 6.00 Build 0)  -->
<!DOCTYPE svg PUBLIC "-//W3C//DTD SVG 1.1//EN" "http://www.w3.org/Graphics/SVG/1.1/DTD/svg11.dtd">
<svg version="1.1" id="Layer_1" xmlns="http://www.w3.org/2000/svg" xmlns:xlink="http://www.w3.org/1999/xlink" x="0px" y="0px"
	 width="99px" height="124.869px" viewBox="0 0 99 124.869" enable-background="new 0 0 99 124.869" xml:space="preserve">
<g id="_x23_ffffffff">
	<path fill="#FFFFFF" d="M24.229,27.943c2.3-0.075,4.606-0.065,6.907-0.01c0.11,4.912,0.015,9.822,0.055,14.729
		c0.076,1.52-0.315,3.355-1.89,3.976c-2.096,1.23-5.156-0.465-5.006-2.96C24.164,38.436,24.298,33.189,24.229,27.943z"/>
	<path fill="#FFFFFF" d="M63.619,27.938c2.306-0.061,4.616-0.065,6.922,0.005c-0.03,4.741-0.021,9.482-0.011,14.224
		c-0.045,1.28,0.05,2.76-0.9,3.766c-1.375,1.541-4.061,1.436-5.317-0.195c-0.835-0.995-0.7-2.365-0.745-3.576
		C63.624,37.42,63.522,32.675,63.619,27.938z"/>
	<path fill="#FFFFFF" d="M57.602,64.387c1.521-2.01,5.071-2.16,6.317,0.2c0.79,1.545,0.19,3.441-1.055,4.551
		c-5.682,5.662-11.378,11.299-17.064,16.955c-0.935,0.875-2.065,1.785-3.42,1.72c-1.315-0.095-2.321-1.061-3.221-1.92
		c-2.07-2.101-4.171-4.167-6.261-6.236c-0.94-0.976-2.011-2.046-2.111-3.477c-0.195-1.94,1.695-3.676,3.591-3.57
		c1.74-0.056,2.806,1.555,3.966,2.6c1.45,1.32,2.61,3.026,4.376,3.952C47.729,74.29,52.64,69.313,57.602,64.387z"/>
</g>
<g id="_x23_788f1aff">
	<path fill="#788F1A" d="M32.896,9.17c5.311-5.442,13.438-7.953,20.89-6.422c7.437,1.33,14.008,6.636,16.904,13.603
		c1.345,2.991,1.76,6.272,1.965,9.512c3.731,0.095,7.472-0.1,11.203,0.07c3.937,0.27,7.232,3.656,7.647,7.532
		c1.56,20.235,3.235,40.455,4.781,60.69c0.415,5.296,1.226,10.928-0.96,15.959c-1.865,4.3-5.221,8.071-9.567,9.952
		c-3.056,1.506-6.482,1.986-9.853,2.016c-16.009-0.01-32.023,0-48.032-0.005c-3.17-0.02-6.362,0.16-9.502-0.355
		c-6.431-0.92-12.198-5.287-14.773-11.253c-2.315-4.876-1.636-10.438-1.155-15.628C3.968,74.51,5.699,54.2,7.224,33.871
		c0.245-4.021,3.611-7.662,7.682-7.932c3.726-0.166,7.461,0,11.192-0.05C26.259,19.737,28.435,13.525,32.896,9.17 M40.492,11.775
		c-4.756,2.956-7.342,8.602-7.271,14.108c10.787,0,21.57-0.025,32.358,0.01c-0.021-4.451-1.566-8.998-4.792-12.148
		C55.551,8.489,46.629,7.574,40.492,11.775 M26.229,25.943c0.07,5.246-0.065,10.493,0.065,15.734c-0.15,2.496,2.91,4.191,5.006,2.96
		c1.575-0.62,1.966-2.456,1.89-3.976c-0.04-4.907,0.056-9.817-0.055-14.729C30.835,25.878,28.529,25.868,26.229,25.943
		 M65.619,25.938c-0.096,4.736,0.005,9.482-0.05,14.223c0.045,1.21-0.091,2.581,0.745,3.576c1.256,1.631,3.941,1.736,5.317,0.195
		c0.95-1.005,0.855-2.486,0.9-3.766c-0.01-4.741-0.02-9.482,0.011-14.224C70.234,25.874,67.924,25.878,65.619,25.938 M59.602,62.387
		c-4.961,4.926-9.872,9.903-14.883,14.774c-1.766-0.926-2.926-2.631-4.376-3.952c-1.16-1.045-2.226-2.656-3.966-2.6
		c-1.896-0.105-3.786,1.63-3.591,3.57c0.1,1.431,1.17,2.5,2.111,3.477c2.09,2.07,4.191,4.136,6.261,6.236
		c0.9,0.86,1.906,1.825,3.221,1.92c1.355,0.065,2.485-0.846,3.42-1.72c5.687-5.656,11.382-11.293,17.064-16.955
		c1.245-1.11,1.845-3.005,1.055-4.551C64.673,60.227,61.122,60.377,59.602,62.387z"/>
</g>
</svg>
