<?xml version="1.0" encoding="utf-8"?>
<!-- Generator: Adobe Illustrator 16.0.3, SVG Export Plug-In . SVG Version: 6.00 Build 0)  -->
<!DOCTYPE svg PUBLIC "-//W3C//DTD SVG 1.1//EN" "http://www.w3.org/Graphics/SVG/1.1/DTD/svg11.dtd">
<svg version="1.1" id="Layer_1" xmlns="http://www.w3.org/2000/svg" xmlns:xlink="http://www.w3.org/1999/xlink" x="0px" y="0px"
	 width="46.765px" height="62.059px" viewBox="0 0 46.765 62.059" enable-background="new 0 0 46.765 62.059" xml:space="preserve">
<g>
	<g>
		<g>
			<path fill="#56680F" d="M19.97,2.816c2.43-1.751,6.047-1.445,8.168,0.661c1.298,1.19,1.902,2.923,2.053,4.638
				c2.535,0.054,5.072-0.046,7.606,0.036c1.654,0.396,3.128,1.284,4.472,2.297c-1.079,1.506-2.257,3.07-2.505,4.961
				c-0.302,1.988,0.586,3.868,1.319,5.658c-3.52,0.072-7.042,0.144-10.562-0.046c-0.457-1.596-0.845-3.339-2.078-4.544
				c-2.297-2.279-6.312-2.434-8.764-0.306c-1.488,1.19-1.988,3.11-2.484,4.857c-3.646,0.183-7.294,0.107-10.939,0.043
				c0.69-1.697,1.539-3.455,1.355-5.342c-0.18-2.013-1.431-3.681-2.539-5.292C6.417,9.416,7.891,8.532,9.552,8.15
				c2.513-0.082,5.033,0.015,7.55-0.032C17.242,6.048,18.194,3.974,19.97,2.816z M18.586,8.111
				c3.404,0.021,6.812,0.043,10.217-0.011c-0.072-2.862-2.757-5.342-5.637-4.958C20.646,3.344,18.719,5.648,18.586,8.111z"/>
		</g>
		<path fill="#56680F" d="M20.523,17.39c1.855-1.794,5.08-1.711,6.877,0.126c1.064,0.87,1.384,2.247,1.614,3.534
			c-3.408,0.118-6.819,0.129-10.224-0.014C19.136,19.733,19.459,18.31,20.523,17.39z"/>
		<g>
			<path fill="#56680F" d="M23.241,36.349c3.563-0.259,6.906,3.059,6.457,6.654c-0.061,3.688-3.99,6.546-7.524,5.612
				c-3.239-0.644-5.49-4.138-4.724-7.355C17.924,38.531,20.499,36.428,23.241,36.349z M22.209,41.35
				c-1.387,0.694-2.336,2.416-1.74,3.94c0.51,1.794,2.732,2.851,4.422,1.999c1.765-0.719,2.426-3.063,1.492-4.673
				C25.589,41.188,23.655,40.771,22.209,41.35z"/>
		</g>
	</g>
	<g>
		<g>
			<path fill="#788F1A" d="M5.03,9.06c1.337-0.87,2.969-1.035,4.522-0.91c-1.661,0.381-3.135,1.266-4.479,2.287
				c1.108,1.611,2.358,3.279,2.539,5.292c0.183,1.888-0.665,3.646-1.355,5.342c3.646,0.064,7.294,0.14,10.939-0.043
				c0.496-1.747,0.996-3.667,2.484-4.857c2.452-2.128,6.467-1.974,8.764,0.306c1.233,1.205,1.622,2.948,2.078,4.544
				c3.52,0.19,7.042,0.119,10.562,0.046c-0.733-1.79-1.622-3.67-1.319-5.658c0.248-1.891,1.427-3.455,2.505-4.961
				c-1.344-1.014-2.818-1.902-4.472-2.297c2.707-0.392,5.421,0.989,6.953,3.196c0.917,1.388,0.633,3.124,0.68,4.691
				c-0.18,11.619-0.068,23.245-0.094,34.868c-0.047,1.643,0.18,3.35-0.366,4.932c-0.885,2.822-3.847,4.49-6.715,4.332
				c-9.721-0.004-19.441-0.004-29.166,0c-2.142,0.046-4.393-0.702-5.759-2.423c-1.071-1.431-1.42-3.275-1.413-5.033
				c0.029-13.079-0.021-26.157,0.025-39.235C1.934,11.504,3.509,10.06,5.03,9.06z M20.523,17.39
				c-1.064,0.92-1.387,2.344-1.732,3.646c3.404,0.144,6.816,0.132,10.224,0.014c-0.23-1.287-0.55-2.664-1.614-3.534
				C25.603,15.679,22.378,15.596,20.523,17.39z M23.241,36.349c-2.743,0.079-5.317,2.182-5.791,4.911
				c-0.766,3.218,1.484,6.712,4.724,7.355c3.534,0.935,7.463-1.924,7.524-5.612C30.147,39.408,26.804,36.09,23.241,36.349z"/>
		</g>
		<path fill="#788F1A" d="M22.209,41.35c1.445-0.579,3.379-0.162,4.174,1.266c0.935,1.61,0.273,3.954-1.492,4.673
			c-1.69,0.852-3.912-0.205-4.422-1.999C19.873,43.766,20.822,42.043,22.209,41.35z"/>
	</g>
	<path fill="#56680F" d="M14.155,32.839c-0.264,0.264-0.691,0.264-0.955,0l0,0c-0.264-0.264-0.264-0.692,0-0.955l2.715-2.716
		c0.264-0.264,0.692-0.264,0.956,0l0,0c0.264,0.263,0.264,0.691,0,0.956L14.155,32.839z"/>
	<path fill="#56680F" d="M16.871,31.884c0.264,0.263,0.264,0.691,0,0.955l0,0c-0.263,0.264-0.691,0.264-0.955,0L13.2,30.124
		c-0.264-0.264-0.264-0.692,0-0.956l0,0c0.264-0.264,0.691-0.264,0.955,0L16.871,31.884z"/>
	<path fill="#56680F" d="M14.155,32.839c-0.264,0.264-0.691,0.264-0.955,0l0,0c-0.264-0.264-0.264-0.692,0-0.955l2.715-2.716
		c0.264-0.264,0.692-0.264,0.956,0l0,0c0.264,0.263,0.264,0.691,0,0.956L14.155,32.839z"/>
	<path fill="#56680F" d="M16.871,31.884c0.264,0.263,0.264,0.691,0,0.955l0,0c-0.263,0.264-0.691,0.264-0.955,0L13.2,30.124
		c-0.264-0.264-0.264-0.692,0-0.956l0,0c0.264-0.264,0.691-0.264,0.955,0L16.871,31.884z"/>
	<path fill="#56680F" d="M31.604,32.839c-0.263,0.264-0.691,0.264-0.955,0l0,0c-0.264-0.264-0.264-0.692,0-0.955l2.715-2.716
		c0.264-0.264,0.692-0.264,0.956,0l0,0c0.264,0.263,0.264,0.691,0,0.956L31.604,32.839z"/>
	<path fill="#56680F" d="M34.319,31.884c0.264,0.263,0.264,0.691,0,0.955l0,0c-0.264,0.264-0.692,0.264-0.956,0l-2.715-2.715
		c-0.264-0.264-0.264-0.692,0-0.956l0,0c0.264-0.264,0.692-0.264,0.955,0L34.319,31.884z"/>
</g>
</svg>
